<svg xmlns="http://www.w3.org/2000/svg" viewBox="0 0 182.73 42.05"><defs><style>.cls-1{fill:#231f20;}</style></defs><title>riester-logo</title><g id="Layer_2" data-name="Layer 2"><g id="Layer_1-2" data-name="Layer 1"><path class="cls-1" d="M7,41.49H0V.57H9.86c7.88,0,11.9,3.34,11.9,12.07,0,6.57-2.55,9.24-4.93,10.31l5.95,18.54H15.64l-5-16.95A33.94,33.94,0,0,1,7,24.71ZM7,18.93h2.5c3.8,0,5.21-1.41,5.21-6.29S13.32,6.35,9.52,6.35H7ZM31.55,41.49V.57h7V41.49Zm17.71,0V.57H68.08V6.69H56.29V17.23h9.07v6.12H56.29v12H68.87v6.12ZM90.55,10.66c-.29-3.52-2.16-4.54-3.74-4.54-2.27,0-3.52,1.47-3.52,4,0,7,14.28,10.31,14.28,21.42,0,6.75-4.54,10.48-11.11,10.48S76.21,36.84,75.93,30.72l6.69-1c.29,4.14,1.93,6.18,4.2,6.18,2.44,0,4.08-1.3,4.08-3.74,0-8.1-14.28-10.26-14.28-22,0-6.52,4-10.2,10.89-10.2,5.73,0,9.12,4.14,9.75,9.92Zm20.3-4h-6.8V.57h20.63V6.69h-6.8v34.8h-7Zm21.91,34.8V.57h18.82V6.69H139.79V17.23h9.07v6.12h-9.07v12h12.58v6.12Zm34.21,0h-7V.57h9.86c7.88,0,11.91,3.34,11.91,12.07,0,6.57-2.55,9.24-4.93,10.31l6,18.54h-7.14l-5-16.95a34,34,0,0,1-3.63.17Zm0-22.56h2.49c3.8,0,5.22-1.41,5.22-6.29s-1.42-6.29-5.22-6.29H167Z"/></g></g></svg>