<?xml version="1.0" encoding="utf-8"?>
<!-- Generator: Adobe Illustrator 21.1.0, SVG Export Plug-In . SVG Version: 6.00 Build 0)  -->
<svg version="1.1" id="Layer_1" xmlns="http://www.w3.org/2000/svg" xmlns:xlink="http://www.w3.org/1999/xlink" x="0px" y="0px"
	 viewBox="0 0 182.7 42.1" style="enable-background:new 0 0 182.7 42.1;" xml:space="preserve">
<style type="text/css">
	.st0{fill:#FFFFFF;}
</style>
<path class="st0" d="M7,41.5H0V0.6h9.9c7.9,0,11.9,3.3,11.9,12.1c0,6.6-2.6,9.2-4.9,10.3l5.9,18.5h-7.1l-5-16.9
	c-0.9,0.1-2.4,0.2-3.6,0.2V41.5z M7,18.9h2.5c3.8,0,5.2-1.4,5.2-6.3c0-4.9-1.4-6.3-5.2-6.3H7V18.9z M31.6,41.5V0.6h7v40.9H31.6z
	 M49.3,41.5V0.6h18.8v6.1H56.3v10.5h9.1v6.1h-9.1v12h12.6v6.1H49.3z M90.6,10.7c-0.3-3.5-2.2-4.5-3.7-4.5c-2.3,0-3.5,1.5-3.5,4
	c0,7,14.3,10.3,14.3,21.4c0,6.7-4.5,10.5-11.1,10.5c-6.5,0-10.3-5.2-10.5-11.3l6.7-1c0.3,4.1,1.9,6.2,4.2,6.2c2.4,0,4.1-1.3,4.1-3.7
	c0-8.1-14.3-10.3-14.3-22c0-6.5,4-10.2,10.9-10.2c5.7,0,9.1,4.1,9.7,9.9L90.6,10.7z M110.9,6.7h-6.8V0.6h20.6v6.1h-6.8v34.8h-7V6.7z
	 M132.8,41.5V0.6h18.8v6.1h-11.8v10.5h9.1v6.1h-9.1v12h12.6v6.1H132.8z M167,41.5h-7V0.6h9.9c7.9,0,11.9,3.3,11.9,12.1
	c0,6.6-2.6,9.2-4.9,10.3l6,18.5h-7.1l-5-16.9c-0.9,0.1-2.4,0.2-3.6,0.2V41.5z M167,18.9h2.5c3.8,0,5.2-1.4,5.2-6.3
	c0-4.9-1.4-6.3-5.2-6.3H167V18.9z"/>
</svg>
