<svg id="Layer_1" data-name="Layer 1" xmlns="http://www.w3.org/2000/svg" viewBox="0 0 182.73 42.05"><defs><style>.cls-1{fill:#231f20;}</style></defs><title>Vector Smart Object</title><path class="cls-1" d="M223.25,415.8h-7V374.88h9.86c7.88,0,11.9,3.34,11.9,12.07,0,6.57-2.55,9.24-4.93,10.31L239,415.8h-7.14l-5-16.95a33.94,33.94,0,0,1-3.63.17Zm0-22.56h2.5c3.8,0,5.21-1.41,5.21-6.29s-1.42-6.29-5.21-6.29h-2.5Zm24.52,22.56V374.88h7V415.8Zm17.71,0V374.88H284.3V381H272.51v10.54h9.07v6.12h-9.07v12h12.58v6.12ZM306.77,385c-.29-3.52-2.16-4.54-3.74-4.54-2.27,0-3.52,1.47-3.52,4,0,7,14.28,10.31,14.28,21.42,0,6.75-4.54,10.48-11.11,10.48s-10.26-5.21-10.55-11.33l6.69-1c.29,4.14,1.93,6.18,4.2,6.18,2.44,0,4.08-1.3,4.08-3.74,0-8.1-14.28-10.26-14.28-22,0-6.52,4-10.2,10.89-10.2,5.73,0,9.12,4.14,9.75,9.92Zm20.3-4h-6.8v-6.12H340.9V381h-6.8v34.8h-7ZM349,415.8V374.88H367.8V381H356v10.54h9.07v6.12H356v12h12.58v6.12Zm34.21,0h-7V374.88H386c7.88,0,11.91,3.34,11.91,12.07,0,6.57-2.55,9.24-4.93,10.31l6,18.54h-7.14l-5-16.95a34,34,0,0,1-3.63.17Zm0-22.56h2.49c3.8,0,5.22-1.41,5.22-6.29s-1.42-6.29-5.22-6.29H383.2Z" transform="translate(-216.22 -374.32)"/></svg>